<svg xmlns="http://www.w3.org/2000/svg" version="1.1" xmlns:xlink="http://www.w3.org/1999/xlink" width="512" height="512" x="0" y="0" viewBox="0 0 24 24" style="enable-background:new 0 0 512 512" xml:space="preserve" class=""><g><linearGradient id="a" x1="2.101" x2="21.899" y1="7.384" y2="16.616" gradientUnits="userSpaceOnUse"><stop offset="0" stop-color="#fff" stop-opacity=".2"></stop><stop offset="1" stop-color="#fff" stop-opacity="0"></stop></linearGradient><path fill="#0370e3" d="M23.5 11.5h-7.551A3.98 3.98 0 0 0 12.5 8.051V.5a.5.5 0 0 0-1 0v7.551A3.98 3.98 0 0 0 8.051 11.5H.5a.5.5 0 0 0 0 1h7.551a3.98 3.98 0 0 0 3.449 3.449V23.5a.5.5 0 0 0 1 0v-7.551a3.98 3.98 0 0 0 3.449-3.449H23.5a.5.5 0 0 0 0-1zm-8.551 0H12.5V9.051a2.994 2.994 0 0 1 2.449 2.449zM11.5 9.051V11.5H9.051A2.994 2.994 0 0 1 11.5 9.051zM9.051 12.5H11.5v2.449A2.994 2.994 0 0 1 9.051 12.5zm3.449 2.449V12.5h2.449a2.994 2.994 0 0 1-2.449 2.449z" opacity="1" data-original="#303c42"></path><path fill="url(#a)" d="M23.5 11.5h-7.551A3.98 3.98 0 0 0 12.5 8.051V.5a.5.5 0 0 0-1 0v7.551A3.98 3.98 0 0 0 8.051 11.5H.5a.5.5 0 0 0 0 1h7.551a3.98 3.98 0 0 0 3.449 3.449V23.5a.5.5 0 0 0 1 0v-7.551a3.98 3.98 0 0 0 3.449-3.449H23.5a.5.5 0 0 0 0-1zm-8.551 0H12.5V9.051a2.994 2.994 0 0 1 2.449 2.449zM11.5 9.051V11.5H9.051A2.994 2.994 0 0 1 11.5 9.051zM9.051 12.5H11.5v2.449A2.994 2.994 0 0 1 9.051 12.5zm3.449 2.449V12.5h2.449a2.994 2.994 0 0 1-2.449 2.449z" opacity="1" data-original="url(#a)"></path></g></svg>